<svg xmlns="http://www.w3.org/2000/svg" xmlns:xlink="http://www.w3.org/1999/xlink" width="500" zoomAndPan="magnify" viewBox="0 0 375 374.999991" height="500" preserveAspectRatio="xMidYMid meet" version="1.0"><defs><g/><clipPath id="d4c143d534"><path d="M 132 86 L 323.179688 86 L 323.179688 323.53125 L 132 323.53125 Z M 132 86 " clip-rule="nonzero"/></clipPath><clipPath id="61590c5d0f"><path d="M 116.6875 70.167969 L 313 70.167969 L 313 313 L 116.6875 313 Z M 116.6875 70.167969 " clip-rule="nonzero"/></clipPath></defs><rect x="-37.5" width="450" fill="#ffffff" y="-37.499999" height="449.999989" fill-opacity="1"/><rect x="-37.5" width="450" fill="#ffffff" y="-37.499999" height="449.999989" fill-opacity="1"/><rect x="-37.5" width="450" fill="#ffffff" y="-37.499999" height="449.999989" fill-opacity="1"/><g clip-path="url(#d4c143d534)"><path fill="#7ed957" d="M 189.304688 195.417969 L 225.417969 195.417969 C 236.265625 195.417969 244.425781 192.5625 249.90625 186.847656 C 255.382812 181.125 258.125 173.152344 258.125 162.910156 C 258.125 152.675781 255.355469 144.640625 249.824219 138.820312 C 244.296875 132.988281 236.160156 130.078125 225.417969 130.078125 L 189.304688 130.078125 Z M 220.214844 239.417969 L 189.304688 239.417969 L 189.304688 323.339844 L 132.199219 323.339844 L 132.199219 86.082031 L 225.417969 86.082031 C 253.511719 86.082031 275.472656 92.324219 291.308594 104.800781 C 307.144531 117.277344 315.066406 134.917969 315.066406 157.707031 C 315.066406 174.199219 311.726562 187.875 305.0625 198.71875 C 298.386719 209.578125 287.949219 218.363281 273.742188 225.09375 L 323.195312 320.894531 L 323.195312 323.339844 L 262.027344 323.339844 L 220.214844 239.417969 " fill-opacity="1" fill-rule="nonzero"/></g><g clip-path="url(#61590c5d0f)"><path fill="#008037" d="M 162.53125 75.433594 L 159.757812 75.433594 C 158.40625 75.433594 157.308594 74.335938 157.308594 72.980469 C 157.308594 71.621094 158.40625 70.523438 159.757812 70.523438 L 162.53125 70.523438 C 163.886719 70.523438 164.988281 71.621094 164.988281 72.980469 C 164.988281 74.335938 163.886719 75.433594 162.53125 75.433594 Z M 178.675781 179.863281 L 212.339844 179.863281 C 222.445312 179.863281 230.089844 177.230469 235.058594 172.042969 C 240.054688 166.824219 242.589844 159.34375 242.589844 149.808594 C 242.589844 140.273438 240.023438 132.738281 234.96875 127.40625 C 229.941406 122.117188 222.332031 119.433594 212.339844 119.433594 L 178.675781 119.433594 Z M 212.339844 184.773438 L 176.222656 184.773438 C 174.871094 184.773438 173.769531 183.675781 173.769531 182.316406 L 173.769531 116.976562 C 173.769531 115.621094 174.871094 114.519531 176.222656 114.519531 L 212.339844 114.519531 C 223.726562 114.519531 232.535156 117.71875 238.527344 124.023438 C 244.476562 130.292969 247.492188 138.96875 247.492188 149.808594 C 247.492188 160.65625 244.503906 169.277344 238.601562 175.445312 C 232.660156 181.636719 223.832031 184.773438 212.339844 184.773438 Z M 310.113281 312.695312 L 248.945312 312.695312 C 248.019531 312.695312 247.164062 312.171875 246.75 311.332031 L 205.617188 228.773438 L 178.675781 228.773438 L 178.675781 310.234375 C 178.675781 311.589844 177.578125 312.695312 176.222656 312.695312 L 119.117188 312.695312 C 117.765625 312.695312 116.671875 311.589844 116.671875 310.234375 L 116.671875 72.980469 C 116.671875 71.621094 117.765625 70.523438 119.117188 70.523438 L 143.335938 70.523438 C 144.695312 70.523438 145.789062 71.621094 145.789062 72.980469 C 145.789062 74.335938 144.695312 75.433594 143.335938 75.433594 L 121.574219 75.433594 L 121.574219 307.785156 L 173.769531 307.785156 L 173.769531 226.316406 C 173.769531 224.960938 174.871094 223.859375 176.222656 223.859375 L 207.136719 223.859375 C 208.066406 223.859375 208.914062 224.390625 209.332031 225.222656 L 250.460938 307.785156 L 307.351562 307.785156 L 258.484375 213.121094 C 258.175781 212.527344 258.125 211.835938 258.339844 211.203125 C 258.550781 210.574219 259.011719 210.058594 259.617188 209.769531 C 273.3125 203.285156 283.5 194.726562 289.890625 184.332031 C 296.285156 173.929688 299.53125 160.554688 299.53125 144.597656 C 299.53125 122.710938 291.855469 105.5625 276.71875 93.625 C 261.390625 81.558594 239.734375 75.433594 212.339844 75.433594 L 189.304688 75.433594 C 187.953125 75.433594 186.851562 74.335938 186.851562 72.980469 C 186.851562 71.621094 187.953125 70.523438 189.304688 70.523438 L 212.339844 70.523438 C 240.859375 70.523438 263.542969 76.996094 279.75 89.769531 C 296.128906 102.683594 304.4375 121.128906 304.4375 144.597656 C 304.4375 161.480469 300.945312 175.71875 294.0625 186.910156 C 287.539062 197.535156 277.421875 206.332031 263.996094 213.09375 L 312.296875 306.664062 C 312.472656 307.007812 312.566406 307.398438 312.566406 307.789062 L 312.566406 310.234375 C 312.566406 311.589844 311.472656 312.695312 310.113281 312.695312 " fill-opacity="1" fill-rule="nonzero"/></g><g fill="#7ed957" fill-opacity="1"><g transform="translate(9.877432, 115.011057)"><g><path d="M 38.84375 0 C 37.976562 0 37.441406 -0.40625 37.234375 -1.21875 L 35.71875 -6.6875 C 35.613281 -7.039062 35.382812 -7.21875 35.03125 -7.21875 L 19.234375 -7.21875 C 18.878906 -7.21875 18.648438 -7.039062 18.546875 -6.6875 L 17.03125 -1.21875 C 16.820312 -0.40625 16.285156 0 15.421875 0 L 3.109375 0 C 2.609375 0 2.242188 -0.148438 2.015625 -0.453125 C 1.785156 -0.753906 1.75 -1.160156 1.90625 -1.671875 L 17.703125 -51.984375 C 17.960938 -52.796875 18.492188 -53.203125 19.296875 -53.203125 L 34.953125 -53.203125 C 35.765625 -53.203125 36.300781 -52.796875 36.5625 -51.984375 L 52.359375 -1.671875 C 52.410156 -1.515625 52.4375 -1.335938 52.4375 -1.140625 C 52.4375 -0.378906 52.003906 0 51.140625 0 Z M 21.890625 -18.703125 C 21.890625 -18.335938 22.066406 -18.15625 22.421875 -18.15625 L 31.84375 -18.15625 C 32.039062 -18.15625 32.191406 -18.21875 32.296875 -18.34375 C 32.398438 -18.476562 32.425781 -18.644531 32.375 -18.84375 L 27.515625 -36.40625 C 27.460938 -36.65625 27.347656 -36.78125 27.171875 -36.78125 C 26.992188 -36.78125 26.851562 -36.65625 26.75 -36.40625 L 21.890625 -18.84375 Z M 21.890625 -18.703125 "/></g></g></g><g fill="#7ed957" fill-opacity="1"><g transform="translate(64.134337, 115.011057)"><g><path d="M 26.453125 -38.078125 C 26.453125 -39.035156 26.929688 -39.515625 27.890625 -39.515625 L 39.296875 -39.515625 C 40.253906 -39.515625 40.734375 -39.035156 40.734375 -38.078125 L 40.734375 -5.171875 C 40.734375 2.078125 38.644531 7.234375 34.46875 10.296875 C 30.289062 13.359375 25.035156 14.890625 18.703125 14.890625 C 16.472656 14.890625 13.882812 14.664062 10.9375 14.21875 C 10.539062 14.164062 10.226562 13.984375 10 13.671875 C 9.769531 13.367188 9.679688 13.015625 9.734375 12.609375 L 10.1875 2.96875 C 10.238281 2.15625 10.59375 1.75 11.25 1.75 C 11.5 1.75 11.703125 1.773438 11.859375 1.828125 C 13.828125 2.285156 15.726562 2.515625 17.5625 2.515625 C 19.832031 2.515625 21.726562 2.082031 23.25 1.21875 C 24.769531 0.351562 25.757812 -0.988281 26.21875 -2.8125 L 26.21875 -2.96875 C 26.21875 -3.164062 26.101562 -3.316406 25.875 -3.421875 C 25.644531 -3.523438 25.429688 -3.5 25.234375 -3.34375 C 23.503906 -2.03125 21.222656 -1.375 18.390625 -1.375 C 10.285156 -1.375 5.117188 -4.664062 2.890625 -11.25 C 2.023438 -13.78125 1.59375 -16.742188 1.59375 -20.140625 C 1.59375 -23.890625 2.125 -27.082031 3.1875 -29.71875 C 4.40625 -32.90625 6.316406 -35.4375 8.921875 -37.3125 C 11.535156 -39.1875 14.539062 -40.125 17.9375 -40.125 C 21.332031 -40.125 23.941406 -39.160156 25.765625 -37.234375 C 25.960938 -37.035156 26.125 -36.960938 26.25 -37.015625 C 26.382812 -37.066406 26.453125 -37.21875 26.453125 -37.46875 Z M 25.6875 -14.96875 C 26.195312 -16.289062 26.453125 -18.039062 26.453125 -20.21875 C 26.453125 -22.238281 26.171875 -23.882812 25.609375 -25.15625 C 24.742188 -26.976562 23.300781 -27.890625 21.28125 -27.890625 C 19.507812 -27.890625 18.164062 -27.003906 17.25 -25.234375 C 16.4375 -23.816406 16.03125 -22.066406 16.03125 -19.984375 C 16.03125 -17.960938 16.363281 -16.316406 17.03125 -15.046875 C 17.9375 -13.273438 19.40625 -12.390625 21.4375 -12.390625 C 23.457031 -12.390625 24.875 -13.25 25.6875 -14.96875 Z M 25.6875 -14.96875 "/></g></g></g><path stroke-linecap="butt" transform="matrix(1.26683, 0, 0, 1.26683, 6.518249, 29.307945)" fill="none" stroke-linejoin="miter" d="M 30.653935 65.000372 C 29.969401 65.000372 29.550048 64.676606 29.395873 64.032158 L 28.193314 59.727613 C 28.116227 59.443932 27.934301 59.302092 27.650621 59.302092 L 15.171758 59.302092 C 14.900411 59.302092 14.718485 59.443932 14.632148 59.727613 L 13.445006 64.032158 C 13.278498 64.676606 12.852977 65.000372 12.171527 65.000372 L 2.461633 65.000372 C 2.06078 65.000372 1.767849 64.8832 1.58284 64.648855 C 1.407081 64.40526 1.376247 64.081494 1.493419 63.680641 L 13.972282 23.962272 C 14.175792 23.327075 14.59823 23.009476 15.230344 23.009476 L 27.592035 23.009476 C 28.236483 23.009476 28.655837 23.327075 28.85318 23.962272 L 41.332043 63.680641 C 41.369045 63.797813 41.390629 63.939653 41.390629 64.106162 C 41.390629 64.701274 41.051446 65.000372 40.379246 65.000372 Z M 17.280861 50.236647 C 17.280861 50.520327 17.419618 50.662168 17.690965 50.662168 L 25.131414 50.662168 C 25.297922 50.662168 25.421261 50.612832 25.498348 50.51416 C 25.575436 50.418572 25.59702 50.285983 25.556935 50.119474 L 21.72108 36.265377 C 21.680994 36.068034 21.58849 35.972446 21.440482 35.972446 C 21.304809 35.972446 21.196887 36.068034 21.1198 36.265377 L 17.280861 50.119474 Z M 63.699642 34.945645 C 63.699642 34.184025 64.078911 33.804756 64.840531 33.804756 L 73.850474 33.804756 C 74.599761 33.804756 74.975946 34.184025 74.975946 34.945645 L 74.975946 60.914755 C 74.975946 66.634619 73.326282 70.707903 70.026953 73.128438 C 66.736875 75.548974 62.592671 76.760783 57.591259 76.760783 C 55.824422 76.760783 53.783155 76.578858 51.470541 76.21809 C 51.146775 76.181088 50.89393 76.039248 50.70892 75.792569 C 50.533162 75.558224 50.465325 75.280711 50.502327 74.960028 L 50.869262 67.343821 C 50.909347 66.699372 51.186861 66.375606 51.704886 66.375606 C 51.908396 66.375606 52.071821 66.397191 52.188993 66.434193 C 53.749237 66.798044 55.24781 66.976886 56.684714 66.976886 C 58.479302 66.976886 59.977876 66.634619 61.180435 65.953169 C 62.379911 65.277886 63.163116 64.220251 63.523883 62.774096 L 63.523883 62.656924 C 63.523883 62.499666 63.431379 62.382494 63.24637 62.305406 C 63.070611 62.215985 62.904103 62.23757 62.746845 62.363993 C 61.390112 63.400044 59.589357 63.914986 57.34458 63.914986 C 50.946349 63.914986 46.869982 61.318691 45.112395 56.123019 C 44.430945 54.121838 44.088679 51.784556 44.088679 49.108091 C 44.088679 46.141779 44.508032 43.616405 45.34674 41.538136 C 46.305704 39.018929 47.813528 37.020831 49.873296 35.546925 C 51.933064 34.063769 54.307347 33.320649 56.993063 33.320649 C 59.666444 33.320649 61.726212 34.08227 63.172366 35.605511 C 63.329624 35.762769 63.456047 35.821355 63.551635 35.78127 C 63.650306 35.741185 63.699642 35.624012 63.699642 35.429753 Z M 63.098363 53.181375 C 63.499216 52.145324 63.699642 50.763923 63.699642 49.037171 C 63.699642 47.44301 63.480715 46.144862 63.039776 45.139646 C 62.367577 43.705826 61.229771 42.987374 59.626359 42.987374 C 58.232623 42.987374 57.171905 43.684242 56.450369 45.08106 C 55.805921 46.203449 55.482155 47.58485 55.482155 49.225264 C 55.482155 50.828676 55.747335 52.126823 56.274611 53.122789 C 56.986896 54.519607 58.143202 55.216475 59.743531 55.216475 C 61.346943 55.216475 62.463165 54.538108 63.098363 53.181375 Z M 63.098363 53.181375 " stroke="#008037" stroke-width="2.249996" stroke-opacity="1" stroke-miterlimit="4"/><g fill="#7ed957" fill-opacity="1"><g transform="translate(329.417942, 325.657197)"><g><path d="M 21.203125 0.609375 C 16.390625 0.609375 12.320312 -0.679688 9 -3.265625 C 5.6875 -5.847656 3.5 -9.34375 2.4375 -13.75 C 1.925781 -15.570312 1.671875 -17.601562 1.671875 -19.84375 C 1.671875 -22.320312 1.972656 -24.570312 2.578125 -26.59375 C 3.796875 -30.800781 6.039062 -34.109375 9.3125 -36.515625 C 12.582031 -38.921875 16.570312 -40.125 21.28125 -40.125 C 25.988281 -40.125 29.953125 -38.921875 33.171875 -36.515625 C 36.390625 -34.109375 38.609375 -30.851562 39.828125 -26.75 C 40.429688 -24.625 40.734375 -22.367188 40.734375 -19.984375 C 40.734375 -18.054688 40.53125 -16.132812 40.125 -14.21875 C 39.0625 -9.65625 36.867188 -6.039062 33.546875 -3.375 C 30.234375 -0.71875 26.117188 0.609375 21.203125 0.609375 Z M 21.203125 -11.625 C 22.523438 -11.625 23.585938 -12.066406 24.390625 -12.953125 C 25.203125 -13.835938 25.757812 -15.015625 26.0625 -16.484375 C 26.269531 -17.453125 26.375 -18.59375 26.375 -19.90625 C 26.375 -21.070312 26.242188 -22.238281 25.984375 -23.40625 C 25.234375 -26.394531 23.640625 -27.890625 21.203125 -27.890625 C 18.671875 -27.890625 17.078125 -26.394531 16.421875 -23.40625 C 16.160156 -22.539062 16.03125 -21.375 16.03125 -19.90625 C 16.03125 -18.59375 16.132812 -17.453125 16.34375 -16.484375 C 17.101562 -13.242188 18.722656 -11.625 21.203125 -11.625 Z M 21.203125 -11.625 "/></g></g></g><path stroke-linecap="butt" transform="matrix(1.26683, 0, 0, 1.26683, 326.058763, 239.954091)" fill="none" stroke-linejoin="miter" d="M 16.740106 65.483205 C 12.941252 65.483205 9.731344 64.462571 7.104215 62.421304 C 4.486337 60.383121 2.759585 57.623402 1.917794 54.148314 C 1.516941 52.70216 1.319598 51.101831 1.319598 49.344245 C 1.319598 47.380065 1.557026 45.597811 2.034966 43.997482 C 3.003181 40.676569 4.773101 38.071024 7.350894 36.177765 C 9.928688 34.272171 13.080009 33.319374 16.798692 33.319374 C 20.520458 33.319374 23.647112 34.272171 26.187903 36.177765 C 28.725611 38.071024 30.473947 40.639567 31.429827 43.88031 C 31.907767 45.560809 32.148279 47.343063 32.148279 49.227073 C 32.148279 50.741064 31.991022 52.258138 31.67959 53.78138 C 30.840882 57.38289 29.107963 60.235113 26.480834 62.334967 C 23.862955 64.43482 20.616046 65.483205 16.740106 65.483205 Z M 16.740106 55.81648 C 17.776156 55.81648 18.608697 55.471129 19.243895 54.777345 C 19.888344 54.074311 20.332365 53.143098 20.579044 51.980624 C 20.733218 51.219004 20.813389 50.318626 20.813389 49.285659 C 20.813389 48.36678 20.714717 47.444818 20.520458 46.516689 C 19.913011 44.16399 18.65495 42.986099 16.740106 42.986099 C 14.738924 42.986099 13.477779 44.16399 12.962837 46.516689 C 12.756243 47.201223 12.654488 48.123185 12.654488 49.285659 C 12.654488 50.318626 12.737742 51.219004 12.90425 51.980624 C 13.499363 54.536833 14.779009 55.81648 16.740106 55.81648 Z M 16.740106 55.81648 " stroke="#008037" stroke-width="2.249996" stroke-opacity="1" stroke-miterlimit="4"/></svg>